<?xml version="1.0" encoding="UTF-8" standalone="no"?>
<svg
   xmlns:vectornator="http://vectornator.io"
   xmlns:dc="http://purl.org/dc/elements/1.1/"
   xmlns:cc="http://creativecommons.org/ns#"
   xmlns:rdf="http://www.w3.org/1999/02/22-rdf-syntax-ns#"
   xmlns:svg="http://www.w3.org/2000/svg"
   xmlns="http://www.w3.org/2000/svg"
   xmlns:sodipodi="http://sodipodi.sourceforge.net/DTD/sodipodi-0.dtd"
   xmlns:inkscape="http://www.inkscape.org/namespaces/inkscape"
   height="100%"
   style="fill-rule:nonzero;clip-rule:evenodd;stroke-linecap:round;stroke-linejoin:round;"
   xml:space="preserve"
   width="100%"
   version="1.1"
   viewBox="0 0 841.995 595.35"
   id="svg874"
   sodipodi:docname="Logo_SVSHI.svg"
   inkscape:export-filename="/Users/samuel/EPFL/smartinfra/Logo_SVSHI.png"
   inkscape:export-xdpi="300"
   inkscape:export-ydpi="300"
   inkscape:version="1.0.2 (e86c8708, 2021-01-15)"><sodipodi:namedview
   pagecolor="#ffffff"
   bordercolor="#666666"
   borderopacity="1"
   objecttolerance="10"
   gridtolerance="10"
   guidetolerance="10"
   inkscape:pageopacity="0"
   inkscape:pageshadow="2"
   inkscape:window-width="1920"
   inkscape:window-height="1027"
   id="namedview876"
   showgrid="false"
   inkscape:zoom="0.96565874"
   inkscape:cx="387.69028"
   inkscape:cy="299.92756"
   inkscape:window-x="0"
   inkscape:window-y="25"
   inkscape:window-maximized="1"
   inkscape:current-layer="svg874" />
<metadata
   id="metadata833">
<vectornator:setting
   key="OutlineMode"
   value="0" />
<vectornator:setting
   key="SnapToPoints"
   value="0" />
<vectornator:setting
   key="CMYKEnabledKey"
   value="0" />
<vectornator:setting
   key="doHistoryDisabled"
   value="0" />
<vectornator:setting
   key="SnapToEdges"
   value="0" />
<vectornator:setting
   key="SnapToGuides"
   value="1" />
<vectornator:setting
   key="Units"
   value="Millimeters" />
<vectornator:setting
   key="DisplayWhiteBackground"
   value="1" />
<vectornator:setting
   key="GuidesVisible"
   value="1" />
<vectornator:setting
   key="PencilOnly"
   value="0" />
<vectornator:setting
   key="DynamicGuides"
   value="0" />
<vectornator:setting
   key="RulersVisible"
   value="1" />
<vectornator:setting
   key="IsolateActiveLayer"
   value="0" />
<vectornator:setting
   key="SnapToGrid"
   value="0" />
<vectornator:setting
   key="TimeLapseWatermarkDisabled"
   value="0" />
<vectornator:setting
   key="DimensionsVisible"
   value="1" />
<rdf:RDF><cc:Work
     rdf:about=""><dc:format>image/svg+xml</dc:format><dc:type
       rdf:resource="http://purl.org/dc/dcmitype/StillImage" /></cc:Work></rdf:RDF></metadata>
<defs
   id="defs835" />
<g
   id="Calque 2"
   vectornator:layerName="Calque 2"
   transform="translate(155.33438,32.102438)">
<g
   opacity="1"
   id="g865">
<path
   stroke="#000000"
   stroke-width="5.35412"
   d="m 109.667,264.188 c 3.838,-13.586 16.096,-23.634 23.173,-35.429 8.477,-14.129 21.509,-25.185 34.315,-35.429 29.962,-23.97 66.095,-42.542 104.058,-50.135 9.747,-1.949 19.736,-2.521 29.412,-4.456 4.909,-0.982 10.324,0.092 15.152,-1.115 6.731,-1.682 14.579,0.917 21.391,-0.445 3.622,-0.725 8.518,-0.035 12.033,0.668 7.841,1.568 15.641,1.181 23.396,3.12 11.701,2.925 23.482,6.427 35.206,9.358 2.619,0.655 4.954,2.464 7.576,3.12 6.966,1.741 16.091,5.263 20.5,11.141 5.653,7.538 5.842,15.621 7.576,24.288 0.754,3.773 1.669,8.587 0.891,12.478 -1.601,8.005 -6.95,9.598 -13.592,12.255 -7.242,2.897 -15.072,3.371 -22.728,4.902 -5.286,1.057 -10.64,2.707 -16.043,3.788 -14.228,2.845 -28.657,7.983 -43.228,9.804 -5.41,0.676 -10.471,3.565 -15.82,4.457 -11.297,1.882 -22.926,5.973 -33.424,10.472 -7.449,3.193 -15.694,4.839 -22.95,8.467 -14.66,7.33 -30.42,13.951 -45.679,20.054 -5.24,2.097 -15.164,8.913 -20.277,8.913 -0.702,0 -1.013,-2.918 -1.337,-3.565 -1.027,-2.055 -2.626,-4.632 -4.233,-6.239 -1.494,-1.493 -2.171,-4.398 -3.788,-6.016 -4.358,-4.358 -9.605,-10.035 -15.598,-12.032 -14.239,-4.747 -36.15,-5.182 -50.358,-0.446 -6.809,2.27 -13.841,3.69 -20.277,6.907 -1.696,0.849 -6.002,3.431 -5.347,1.115 z"
   fill="#f6a968"
   stroke-linecap="round"
   opacity="0.995288"
   stroke-linejoin="round"
   id="path837" />
<path
   stroke="#000000"
   stroke-width="5.35412"
   d="m 148.458,255.095 c -2.019,2.51 -2.224,5.917 -2.889,9.245 -2.324,11.618 3.023,24.168 4.622,35.361 1.355,9.486 4,22.383 9.014,30.739 1.315,2.192 1.669,4.94 3.004,7.164 3.085,5.142 7.132,9.906 11.325,14.098 7.884,7.885 18.785,14.173 29.583,16.872 4.755,1.189 8.833,3.903 13.867,4.622 21.766,3.11 43.256,-4.352 64.251,-8.551 10.282,-2.056 20.68,-3.152 30.97,-4.622 7.955,-1.137 15.63,-4.454 23.574,-5.778 14.321,-2.387 31.975,-4.516 45.53,-9.938 7.043,-2.818 13.911,-6.397 21.031,-9.245 8.45,-3.38 18.512,-8.342 24.961,-14.792 24.834,-24.833 21.494,-51.731 21.494,-84.358 0,-7.975 -1.449,-16.029 -3.004,-23.805 -0.108,-0.539 -0.422,-6.933 -0.694,-6.933 -0.172,0 -0.154,0.308 -0.231,0.462 -1.005,2.01 -3.735,3.957 -5.547,5.316 -4.435,3.326 -13.481,5.921 -18.951,6.702 -28.278,4.04 -56.344,11.08 -83.896,18.952 -9.655,2.758 -20.248,6.592 -30.045,8.551 -5.604,1.121 -10.933,4.877 -16.41,6.703 -15.627,5.209 -30.307,13.093 -45.53,19.182 -7.836,3.135 -15.532,6.583 -23.343,9.707 -3.246,1.299 -6.736,3.969 -10.4,3.236 -0.502,-0.1 -1.997,-3.895 -2.542,-4.622 -3.339,-4.452 -6.038,-9.273 -9.939,-13.174 -9.536,-9.536 -21.978,-13.174 -35.592,-13.174 -4.388,0 -11.4,-1.418 -14.213,2.08 z"
   fill="#f6f6f6"
   stroke-linecap="round"
   opacity="0.995288"
   stroke-linejoin="round"
   id="path839" />
<path
   stroke="#000000"
   stroke-width="2.02109"
   d="m 248.647,289.532 c 0,9.032 -1.567,18.665 -0.462,27.503 0.188,1.504 -1.012,7.858 0.462,7.858"
   fill="#ffffff"
   stroke-linecap="round"
   opacity="0.995288"
   stroke-linejoin="round"
   id="path841" />
<path
   stroke="#000000"
   stroke-width="5.35412"
   d="m 248.763,289.994 c -3.813,4.601 -0.578,19.479 -0.578,26.116 0,1.12 -0.793,7.066 0,7.858 0.359,0.36 6.103,-0.924 6.933,-0.924 6.478,0 12.57,-1.849 18.952,-1.849 1.03,0 5.698,-0.071 6.24,-1.156 0.424,-0.847 -0.158,-2.517 0,-3.466 1.298,-7.784 0.925,-16.333 0.925,-24.268 0,-0.808 -0.034,-7.866 -0.925,-8.089 -0.737,-0.184 -1.836,1.015 -2.542,1.156 -1.793,0.358 -3.719,0.157 -5.547,0.462 -5.816,0.969 -19.916,-0.115 -23.458,4.16 z"
   fill="#5c9eff"
   stroke-linecap="round"
   opacity="0.995288"
   stroke-linejoin="round"
   id="path843" />
<path
   stroke="#000000"
   stroke-width="2.02109"
   d="m 264.825,287.683 c 0,10.74 0.925,21.416 0.925,32.125"
   fill="#ffffff"
   stroke-linecap="round"
   opacity="0.995288"
   stroke-linejoin="round"
   id="path845" />
<path
   stroke="#000000"
   stroke-width="2.02109"
   d="m 248.185,306.403 c 3.417,-1.708 8.251,-1.683 12.018,-2.311 6.443,-1.074 12.769,-3.004 19.414,-3.004"
   fill="#ffffff"
   stroke-linecap="round"
   opacity="0.995288"
   stroke-linejoin="round"
   id="path847" />
<path
   stroke="#000000"
   stroke-width="5.35412"
   d="m 361.202,262.029 c -0.254,-2.038 12.691,-2.87 15.253,-3.236 3.889,-0.555 8.884,-1.335 12.481,-2.773 0.291,-0.117 3.902,-1.645 3.929,-1.618 0.619,0.62 -0.694,5.251 -0.694,6.24 0,6.684 0.463,13.174 0.463,19.876 0,1.141 0.675,6.941 -0.463,7.396 -6.503,2.601 -17.043,3.698 -24.036,3.698 -0.8,0 -6.477,1.376 -6.702,0.924 -3.57,-7.139 0.784,-22.338 -0.231,-30.507 z"
   fill="#5c9eff"
   stroke-linecap="round"
   opacity="0.995288"
   stroke-linejoin="round"
   id="path849" />
<path
   stroke="#000000"
   stroke-width="2.02109"
   d="m 360.97,277.051 c 4.084,0 8.563,-2.254 12.712,-2.773 6.097,-0.762 12.287,-0.924 18.258,-0.924"
   fill="#afafaf"
   stroke-linecap="round"
   opacity="0.995288"
   stroke-linejoin="round"
   id="path851" />
<path
   stroke="#000000"
   stroke-width="2.02109"
   d="m 375.762,259.024 c 1.517,0.759 1.215,5.389 1.387,6.934 0.836,7.524 3.235,14.562 3.235,22.187"
   fill="#ffffff"
   stroke-linecap="round"
   opacity="0.995288"
   stroke-linejoin="round"
   id="path853" />
<path
   stroke="#000000"
   stroke-width="5.35412"
   d="m 306.658,359.445 c 2.621,-1.911 0.462,-23.183 0.462,-27.85 0,-1.45 -1.12,-7.2 -0.231,-8.089 0.873,-0.873 3.42,-1.167 4.622,-1.618 6.23,-2.336 12.278,-3.474 18.721,-5.084 1.763,-0.441 4.408,-0.587 6.009,-1.387 0.292,-0.146 0.462,-0.924 0.693,-0.693 0.707,0.707 0.506,7.241 0.693,8.551 1.06,7.414 2.081,15.376 2.081,22.881 0,1.354 1.081,5.39 0,6.471 -3.586,3.586 -19.644,4.16 -25.192,5.085 -1.155,0.192 -8.711,2.355 -7.858,1.733 z"
   fill="#aeaeae"
   stroke-linecap="round"
   opacity="0.995288"
   stroke-linejoin="round"
   id="path855" />
<path
   stroke="#000000"
   stroke-width="2.02109"
   d="m 314.285,339.684 c 0.011,-2.604 -0.755,1.849 0.231,1.849 0.51,0 1.239,-3.083 0,-2.773 -0.752,0.188 -1.294,2.554 -0.694,3.004 1.071,0.804 1.413,-1.796 1.156,-2.311 -0.307,-0.613 -0.696,0.875 -0.693,0.231 z"
   fill="#ffffff"
   stroke-linecap="round"
   opacity="0.995288"
   stroke-linejoin="round"
   id="path857" />
<path
   stroke="#000000"
   stroke-width="5.35412"
   d="m 195.634,175.063 c 13.563,5.3 24.571,16.231 35.392,25.566 17.039,14.698 33.988,34.669 40.052,56.493"
   fill="none"
   stroke-linecap="round"
   opacity="0.995288"
   stroke-linejoin="round"
   id="path859" />
<path
   stroke="#000000"
   stroke-width="5.35412"
   d="m 277.448,143.246 c 6.11,3.558 12.078,11.182 15.923,17.053 2.803,4.279 6.482,8.064 9.425,12.265 9.034,12.894 16.523,27.235 21.241,42.299 1.468,4.686 2.648,10.508 3.03,15.381 0.185,2.366 -0.44,4.641 0.165,6.936"
   fill="none"
   stroke-linecap="round"
   opacity="0.995288"
   stroke-linejoin="round"
   id="path861" />
<path
   stroke="#000000"
   stroke-width="5.35412"
   d="m 348.204,138.763 c 5.887,2.388 10.435,6.905 15.228,10.812 13.819,11.263 21.768,25.969 26.293,43.107 1.068,4.045 2.985,8.682 3.312,12.847 0.256,3.258 1.049,6.339 1.206,9.676 0.083,1.756 -0.893,4.727 -0.514,6.163"
   fill="none"
   stroke-linecap="round"
   opacity="0.995288"
   stroke-linejoin="round"
   id="path863" />
</g>
<path
   stroke="#000000"
   stroke-width="0.270367"
   d="m 345.706,344.181 c -0.454,0 -1.618,0.286 -1.447,0.907 0.05,0.185 0.357,0.325 0.497,0.453 0.539,0.491 1.117,1.164 0.905,1.936 -0.229,0.835 -1.316,0.412 -1.945,0.33 -0.187,-0.024 -0.815,-0.045 -0.815,-0.288"
   fill="none"
   stroke-linecap="round"
   opacity="0.995288"
   stroke-linejoin="round"
   id="path867" />
<path
   stroke="#000000"
   stroke-width="0.270367"
   d="m 347.923,346.118 c -0.649,-0.296 -1.773,1.063 -1.176,1.607 0.09,0.082 0.29,0.041 0.407,0.041 0.896,0 0.632,-0.906 1.041,-1.277 0.075,-0.069 -0.02,0.194 -0.046,0.288 -0.023,0.085 -0.018,0.288 0,0.371 0.062,0.278 0.386,0.494 0.679,0.494"
   fill="none"
   stroke-linecap="round"
   opacity="0.995288"
   stroke-linejoin="round"
   id="path869" />
<path
   stroke="#000000"
   stroke-width="0.270367"
   d="m 349.416,345.994 c 0,0.44 0,0.879 0,1.319 0,0.096 0,0.288 0,0.288 0,0 0.02,-0.167 0.045,-0.247 0.045,-0.142 0.209,-1.409 0.589,-1.236 0.246,0.112 0.173,0.837 0.226,1.03 0.014,0.053 -0.061,0.165 0,0.165 0.095,0 0.064,-0.164 0.09,-0.248 0.067,-0.211 0.582,-1.362 0.95,-1.194 0.571,0.259 -0.129,1.589 0.543,1.895"
   fill="none"
   stroke-linecap="round"
   opacity="0.995288"
   stroke-linejoin="round"
   id="path871" />
</g>
</svg>
