<?xml version="1.0" encoding="UTF-8" standalone="no"?> <!-- Created with Vectornator for iOS (http://vectornator.io/) --><!DOCTYPE svg PUBLIC "-//W3C//DTD SVG 1.1//EN" "http://www.w3.org/Graphics/SVG/1.1/DTD/svg11.dtd">
<svg height="100%" style="fill-rule:nonzero;clip-rule:evenodd;stroke-linecap:round;stroke-linejoin:round;" xmlns:xlink="http://www.w3.org/1999/xlink" xmlns="http://www.w3.org/2000/svg" xml:space="preserve" width="100%" xmlns:vectornator="http://vectornator.io" version="1.1" viewBox="0 0 841.995 595.35">
<metadata>
<vectornator:setting key="RulersVisible" value="1"/>
<vectornator:setting key="OutlineMode" value="0"/>
<vectornator:setting key="DisplayWhiteBackground" value="1"/>
<vectornator:setting key="DynamicGuides" value="0"/>
<vectornator:setting key="SnapToEdges" value="0"/>
<vectornator:setting key="GuidesVisible" value="1"/>
<vectornator:setting key="SnapToGuides" value="1"/>
<vectornator:setting key="DimensionsVisible" value="1"/>
<vectornator:setting key="doHistoryDisabled" value="0"/>
<vectornator:setting key="PencilOnly" value="0"/>
<vectornator:setting key="IsolateActiveLayer" value="0"/>
<vectornator:setting key="CMYKEnabledKey" value="0"/>
<vectornator:setting key="SnapToPoints" value="0"/>
<vectornator:setting key="Units" value="Millimeters"/>
<vectornator:setting key="TimeLapseWatermarkDisabled" value="0"/>
<vectornator:setting key="SnapToGrid" value="0"/>
</metadata>
<defs/>
<g id="Calque 2" vectornator:layerName="Calque 2">
<g opacity="1">
<path stroke="#000000" stroke-width="5.35412" d="M109.667+264.188C113.505+250.602+125.763+240.554+132.84+228.759C141.317+214.63+154.349+203.574+167.155+193.33C197.117+169.36+233.25+150.788+271.213+143.195C280.96+141.246+290.949+140.674+300.625+138.739C305.534+137.757+310.949+138.831+315.777+137.624C322.508+135.942+330.356+138.541+337.168+137.179C340.79+136.454+345.686+137.144+349.201+137.847C357.042+139.415+364.842+139.028+372.597+140.967C384.298+143.892+396.079+147.394+407.803+150.325C410.422+150.98+412.757+152.789+415.379+153.445C422.345+155.186+431.47+158.708+435.879+164.586C441.532+172.124+441.721+180.207+443.455+188.874C444.209+192.647+445.124+197.461+444.346+201.352C442.745+209.357+437.396+210.95+430.754+213.607C423.512+216.504+415.682+216.978+408.026+218.509C402.74+219.566+397.386+221.216+391.983+222.297C377.755+225.142+363.326+230.28+348.755+232.101C343.345+232.777+338.284+235.666+332.935+236.558C321.638+238.44+310.009+242.531+299.511+247.03C292.062+250.223+283.817+251.869+276.561+255.497C261.901+262.827+246.141+269.448+230.882+275.551C225.642+277.648+215.718+284.464+210.605+284.464C209.903+284.464+209.592+281.546+209.268+280.899C208.241+278.844+206.642+276.267+205.035+274.66C203.541+273.167+202.864+270.262+201.247+268.644C196.889+264.286+191.642+258.609+185.649+256.612C171.41+251.865+149.499+251.43+135.291+256.166C128.482+258.436+121.45+259.856+115.014+263.073C113.318+263.922+109.012+266.504+109.667+264.188Z" fill="#f6a968" stroke-linecap="round" opacity="0.995288" stroke-linejoin="round"/>
<path stroke="#000000" stroke-width="5.35412" d="M148.458+255.095C146.439+257.605+146.234+261.012+145.569+264.34C143.245+275.958+148.592+288.508+150.191+299.701C151.546+309.187+154.191+322.084+159.205+330.44C160.52+332.632+160.874+335.38+162.209+337.604C165.294+342.746+169.341+347.51+173.534+351.702C181.418+359.587+192.319+365.875+203.117+368.574C207.872+369.763+211.95+372.477+216.984+373.196C238.75+376.306+260.24+368.844+281.235+364.645C291.517+362.589+301.915+361.493+312.205+360.023C320.16+358.886+327.835+355.569+335.779+354.245C350.1+351.858+367.754+349.729+381.309+344.307C388.352+341.489+395.22+337.91+402.34+335.062C410.79+331.682+420.852+326.72+427.301+320.27C452.135+295.437+448.795+268.539+448.795+235.912C448.795+227.937+447.346+219.883+445.791+212.107C445.683+211.568+445.369+205.174+445.097+205.174C444.925+205.174+444.943+205.482+444.866+205.636C443.861+207.646+441.131+209.593+439.319+210.952C434.884+214.278+425.838+216.873+420.368+217.654C392.09+221.694+364.024+228.734+336.472+236.606C326.817+239.364+316.224+243.198+306.427+245.157C300.823+246.278+295.494+250.034+290.017+251.86C274.39+257.069+259.71+264.953+244.487+271.042C236.651+274.177+228.955+277.625+221.144+280.749C217.898+282.048+214.408+284.718+210.744+283.985C210.242+283.885+208.747+280.09+208.202+279.363C204.863+274.911+202.164+270.09+198.263+266.189C188.727+256.653+176.285+253.015+162.671+253.015C158.283+253.015+151.271+251.597+148.458+255.095Z" fill="#f6f6f6" stroke-linecap="round" opacity="0.995288" stroke-linejoin="round"/>
<path stroke="#000000" stroke-width="2.02109" d="M248.647+289.532C248.647+298.564+247.08+308.197+248.185+317.035C248.373+318.539+247.173+324.893+248.647+324.893" fill="#ffffff" stroke-linecap="round" opacity="0.995288" stroke-linejoin="round"/>
<path stroke="#000000" stroke-width="5.35412" d="M248.763+289.994C244.95+294.595+248.185+309.473+248.185+316.11C248.185+317.23+247.392+323.176+248.185+323.968C248.544+324.328+254.288+323.044+255.118+323.044C261.596+323.044+267.688+321.195+274.07+321.195C275.1+321.195+279.768+321.124+280.31+320.039C280.734+319.192+280.152+317.522+280.31+316.573C281.608+308.789+281.235+300.24+281.235+292.305C281.235+291.497+281.201+284.439+280.31+284.216C279.573+284.032+278.474+285.231+277.768+285.372C275.975+285.73+274.049+285.529+272.221+285.834C266.405+286.803+252.305+285.719+248.763+289.994Z" fill="#afafaf" stroke-linecap="round" opacity="0.995288" stroke-linejoin="round"/>
<path stroke="#000000" stroke-width="2.02109" d="M264.825+287.683C264.825+298.423+265.75+309.099+265.75+319.808" fill="#ffffff" stroke-linecap="round" opacity="0.995288" stroke-linejoin="round"/>
<path stroke="#000000" stroke-width="2.02109" d="M248.185+306.403C251.602+304.695+256.436+304.72+260.203+304.092C266.646+303.018+272.972+301.088+279.617+301.088" fill="#ffffff" stroke-linecap="round" opacity="0.995288" stroke-linejoin="round"/>
<path stroke="#000000" stroke-width="5.35412" d="M361.202+262.029C360.948+259.991+373.893+259.159+376.455+258.793C380.344+258.238+385.339+257.458+388.936+256.02C389.227+255.903+392.838+254.375+392.865+254.402C393.484+255.022+392.171+259.653+392.171+260.642C392.171+267.326+392.634+273.816+392.634+280.518C392.634+281.659+393.309+287.459+392.171+287.914C385.668+290.515+375.128+291.612+368.135+291.612C367.335+291.612+361.658+292.988+361.433+292.536C357.863+285.397+362.217+270.198+361.202+262.029Z" fill="#aeaeae" stroke-linecap="round" opacity="0.995288" stroke-linejoin="round"/>
<path stroke="#000000" stroke-width="2.02109" d="M360.97+277.051C365.054+277.051+369.533+274.797+373.682+274.278C379.779+273.516+385.969+273.354+391.94+273.354" fill="#afafaf" stroke-linecap="round" opacity="0.995288" stroke-linejoin="round"/>
<path stroke="#000000" stroke-width="2.02109" d="M375.762+259.024C377.279+259.783+376.977+264.413+377.149+265.958C377.985+273.482+380.384+280.52+380.384+288.145" fill="#ffffff" stroke-linecap="round" opacity="0.995288" stroke-linejoin="round"/>
<path stroke="#000000" stroke-width="5.35412" d="M306.658+359.445C309.279+357.534+307.12+336.262+307.12+331.595C307.12+330.145+306+324.395+306.889+323.506C307.762+322.633+310.309+322.339+311.511+321.888C317.741+319.552+323.789+318.414+330.232+316.804C331.995+316.363+334.64+316.217+336.241+315.417C336.533+315.271+336.703+314.493+336.934+314.724C337.641+315.431+337.44+321.965+337.627+323.275C338.687+330.689+339.708+338.651+339.708+346.156C339.708+347.51+340.789+351.546+339.708+352.627C336.122+356.213+320.064+356.787+314.516+357.712C313.361+357.904+305.805+360.067+306.658+359.445Z" fill="#aeaeae" stroke-linecap="round" opacity="0.995288" stroke-linejoin="round"/>
<path stroke="#000000" stroke-width="2.02109" d="M314.285+339.684C314.296+337.08+313.53+341.533+314.516+341.533C315.026+341.533+315.755+338.45+314.516+338.76C313.764+338.948+313.222+341.314+313.822+341.764C314.893+342.568+315.235+339.968+314.978+339.453C314.671+338.84+314.282+340.328+314.285+339.684Z" fill="#ffffff" stroke-linecap="round" opacity="0.995288" stroke-linejoin="round"/>
<path stroke="#000000" stroke-width="5.35412" d="M195.634+175.063C209.197+180.363+220.205+191.294+231.026+200.629C248.065+215.327+265.014+235.298+271.078+257.122" fill="none" stroke-linecap="round" opacity="0.995288" stroke-linejoin="round"/>
<path stroke="#000000" stroke-width="5.35412" d="M277.448+143.246C283.558+146.804+289.526+154.428+293.371+160.299C296.174+164.578+299.853+168.363+302.796+172.564C311.83+185.458+319.319+199.799+324.037+214.863C325.505+219.549+326.685+225.371+327.067+230.244C327.252+232.61+326.627+234.885+327.232+237.18" fill="none" stroke-linecap="round" opacity="0.995288" stroke-linejoin="round"/>
<path stroke="#000000" stroke-width="5.35412" d="M348.204+138.763C354.091+141.151+358.639+145.668+363.432+149.575C377.251+160.838+385.2+175.544+389.725+192.682C390.793+196.727+392.71+201.364+393.037+205.529C393.293+208.787+394.086+211.868+394.243+215.205C394.326+216.961+393.35+219.932+393.729+221.368" fill="none" stroke-linecap="round" opacity="0.995288" stroke-linejoin="round"/>
</g>
</g>
</svg>
